<?xml version="1.0" standalone="no"?>
<!DOCTYPE svg PUBLIC "-//W3C//DTD SVG 20010904//EN"
 "http://www.w3.org/TR/2001/REC-SVG-20010904/DTD/svg10.dtd">
<svg version="1.0" xmlns="http://www.w3.org/2000/svg"
 width="1024.000000pt" height="1024.000000pt" viewBox="0 0 1024.000000 1024.000000"
 preserveAspectRatio="xMidYMid meet">

<g transform="translate(0.000000,1024.000000) scale(0.100000,-0.100000)"
fill="#000000" stroke="none">
<path d="M7331 8453 c-8 -15 -13 -16 -30 -5 -39 23 -69 15 -96 -28 -34 -54
-33 -100 4 -142 15 -18 36 -48 45 -66 14 -27 21 -32 49 -30 29 3 32 0 35 -26
3 -28 3 -28 -32 -22 -19 4 -55 18 -78 31 -43 25 -106 32 -156 19 -13 -4 -33
-26 -49 -55 -48 -90 -132 -114 -223 -64 -104 57 -107 58 -229 52 -93 -5 -118
-10 -135 -26 -27 -24 -160 -91 -183 -91 -9 0 -36 -20 -59 -45 l-42 -45 -46 12
c-37 10 -53 10 -79 -1 -17 -7 -56 -19 -86 -27 -38 -10 -79 -34 -137 -80 -85
-66 -137 -94 -174 -94 -11 0 -20 -4 -20 -8 0 -24 164 -167 180 -157 4 3 15 28
25 57 27 85 79 128 155 128 81 0 139 -43 160 -119 22 -78 119 -539 126 -594 6
-53 11 -63 58 -110 29 -29 62 -74 75 -101 l23 -49 21 42 c42 83 295 329 592
576 72 59 164 139 205 177 90 84 314 229 445 288 109 49 117 65 65 121 -35 37
-34 53 7 64 41 10 53 24 53 60 0 47 -8 64 -42 81 -28 15 -33 14 -104 -20 -67
-32 -75 -33 -89 -19 -10 9 -15 28 -13 46 3 28 8 32 51 43 27 7 55 21 62 31 17
21 19 76 5 104 -14 25 -58 25 -86 -2 -29 -27 -44 -17 -44 31 0 44 -9 50 -84
50 -29 0 -56 4 -61 9 -22 20 -53 22 -64 4z"/>
<path d="M4294 8275 c-59 -27 -69 -48 -52 -112 15 -62 8 -73 -52 -73 l-51 0 7
-64 c4 -38 3 -66 -3 -69 -6 -4 -34 11 -63 33 -35 26 -64 40 -84 40 -45 0 -147
-18 -180 -31 -25 -11 -27 -16 -22 -47 7 -44 -9 -266 -30 -432 -16 -124 -16
-124 5 -141 11 -10 54 -23 93 -29 40 -7 167 -32 283 -57 115 -24 287 -59 380
-79 212 -43 469 -102 514 -117 39 -14 57 -37 47 -62 -6 -16 -17 -17 -119 -12
-163 10 -434 57 -722 127 -66 16 -182 40 -257 55 -76 14 -167 35 -204 46 -57
18 -73 19 -114 9 -26 -6 -63 -24 -81 -40 l-34 -28 17 -66 c23 -87 73 -173 308
-526 108 -162 207 -321 220 -352 l25 -58 405 0 c223 0 422 -3 443 -6 l37 -7 0
305 c0 315 7 391 38 436 11 15 24 43 31 62 17 50 68 301 91 454 27 173 35 197
87 248 43 42 45 43 111 43 119 0 152 -41 197 -245 15 -69 40 -181 56 -250 15
-69 31 -145 35 -170 4 -25 10 -52 15 -60 7 -13 8 -13 12 0 9 27 87 435 87 450
-1 8 -24 31 -53 52 -57 39 -125 122 -147 178 -23 57 -82 151 -104 165 -41 25
-86 26 -133 3 -41 -21 -44 -21 -61 -5 -13 13 -18 41 -23 109 -6 99 -17 118
-70 118 -21 0 -32 9 -53 44 -29 49 -73 86 -103 86 -29 0 -63 -42 -63 -77 l0
-31 -79 -3 c-116 -6 -128 -20 -150 -171 -10 -67 -16 -78 -41 -78 -28 0 -58 36
-91 107 -31 69 -49 80 -119 70 -42 -5 -42 -6 -55 59 -6 31 -4 33 42 50 62 23
93 51 93 84 0 40 -32 62 -112 76 -94 17 -94 17 -154 -11z"/>
<path d="M3640 7968 c-19 -30 -20 -43 -14 -135 8 -121 11 -117 -118 -128 -96
-8 -92 -11 -88 53 1 18 -6 45 -15 59 -17 26 -18 26 -114 19 -180 -12 -371 -62
-403 -107 -16 -21 -48 -139 -48 -177 0 -17 60 -52 90 -52 14 0 36 -7 48 -16
28 -20 30 -84 3 -145 -11 -24 -24 -80 -30 -124 -6 -44 -18 -102 -26 -129 -8
-27 -15 -75 -15 -106 l0 -56 -67 8 c-38 4 -84 10 -104 13 -32 6 -41 2 -63 -21
-70 -76 -55 -122 53 -154 38 -11 74 -27 80 -34 17 -21 -3 -89 -38 -128 -26
-29 -35 -32 -88 -34 -89 -2 -95 -10 -71 -99 7 -24 9 -47 6 -51 -4 -3 -37 -10
-75 -14 -51 -7 -72 -14 -85 -30 -23 -28 -23 -42 3 -91 25 -50 22 -76 -14 -103
-23 -17 -45 -21 -135 -24 -133 -4 -159 -13 -183 -66 -25 -55 -24 -60 15 -103
46 -53 56 -75 56 -127 0 -42 -3 -48 -40 -71 -43 -27 -46 -35 -29 -84 10 -28 9
-37 -9 -61 -19 -26 -20 -33 -10 -95 11 -64 10 -68 -11 -84 -19 -14 -21 -23
-15 -58 5 -33 3 -43 -13 -54 -31 -23 -33 -34 -17 -89 21 -70 11 -105 -43 -154
-74 -68 -94 -134 -52 -172 36 -33 49 -70 60 -179 l11 -105 -26 -38 c-34 -50
-33 -67 8 -108 49 -49 92 -47 143 4 49 49 96 77 155 92 42 11 52 10 92 -10 67
-32 142 -107 155 -155 15 -51 26 -224 17 -258 -8 -33 -60 -93 -97 -113 -41
-21 -79 -17 -144 12 -47 22 -61 24 -81 15 -49 -22 -133 -172 -134 -239 0 -48
23 -96 64 -128 44 -35 45 -48 14 -196 -12 -59 -19 -111 -15 -115 16 -16 298
140 552 305 153 100 338 197 455 239 47 17 88 37 93 45 7 10 -21 61 -98 178
-349 533 -409 625 -470 727 -94 156 -87 152 -188 125 -288 -78 -457 -112 -492
-98 -18 7 -19 36 -2 60 11 15 280 91 505 143 13 3 26 12 29 19 3 7 -18 51 -47
98 -28 46 -60 112 -71 146 -39 127 -18 311 66 566 53 162 114 282 176 349 25
28 64 77 86 110 23 33 76 105 118 160 42 55 93 132 112 170 20 39 52 95 73
125 20 30 58 97 84 148 45 87 53 96 132 153 85 61 91 68 75 85 -18 18 -120
270 -127 311 -12 76 48 125 87 70 8 -12 35 -82 58 -156 43 -133 65 -171 99
-171 9 1 46 11 82 23 l65 22 6 45 c4 25 18 124 33 220 14 96 29 209 34 250 5
41 11 82 13 90 3 11 -5 16 -28 18 -28 3 -36 -2 -53 -30z"/>
<path d="M7815 7831 c-38 -27 -126 -86 -195 -130 -69 -44 -166 -110 -217 -148
-234 -174 -800 -688 -852 -774 -14 -25 -21 -48 -17 -62 5 -23 79 -123 174
-236 29 -35 79 -102 111 -150 32 -47 70 -96 84 -109 l24 -23 59 30 c75 37 494
210 639 262 110 40 410 119 453 119 12 0 22 2 22 5 0 3 -16 38 -37 78 -30 59
-37 86 -41 148 -7 114 15 176 86 249 31 31 67 60 80 64 30 10 29 50 -4 162
-15 49 -31 108 -36 131 -6 29 -19 49 -42 66 -26 21 -36 40 -54 104 -11 43 -24
103 -28 133 -8 69 -17 86 -57 110 -48 30 -75 24 -152 -29z"/>
<path d="M5951 7537 c-7 -28 -36 -213 -66 -409 -29 -196 -56 -362 -60 -369 -6
-8 -16 -3 -34 20 l-26 32 0 -378 0 -378 -50 -7 c-91 -14 -92 -13 -100 109 -4
60 -5 226 -3 370 5 251 5 262 -13 253 -16 -9 -58 -14 -59 -7 -1 1 -13 70 -29
152 -16 83 -47 251 -70 375 -45 242 -53 270 -75 270 -17 0 -17 -2 -46 -210
-10 -80 -33 -237 -50 -350 -16 -113 -30 -209 -30 -215 0 -5 -4 -16 -9 -24 -7
-11 -14 -10 -36 5 l-28 18 6 -114 c4 -63 12 -304 17 -535 6 -231 15 -503 20
-605 6 -102 13 -286 17 -410 l6 -225 107 0 108 0 12 69 c16 92 64 183 115 218
94 65 211 60 289 -13 48 -43 106 -148 106 -189 0 -15 3 -40 6 -56 l5 -29 117
3 117 3 0 944 0 944 -26 -25 c-20 -19 -28 -22 -36 -12 -14 17 -64 255 -107
503 -46 260 -55 302 -70 314 -10 8 -15 -1 -25 -42z m-481 -894 c8 -35 9 -88 3
-156 l-8 -102 -75 0 -75 0 -3 130 c-3 152 -3 155 40 219 l32 49 38 -44 c26
-30 41 -60 48 -96z m562 89 c44 -55 50 -86 46 -237 l-3 -110 -80 0 -80 0 -3
137 c-2 124 0 142 19 180 22 44 48 78 58 78 3 -1 23 -22 43 -48z m31 -544 c15
-28 17 -56 15 -183 l-3 -150 -48 -9 c-30 -6 -58 -6 -75 0 l-27 9 -9 148 c-9
160 -5 185 42 232 l25 25 31 -19 c17 -10 39 -34 49 -53z m-618 28 l36 -34 -3
-163 -3 -164 -68 0 c-49 0 -70 4 -78 15 -5 9 -8 81 -7 172 3 150 4 158 27 182
32 34 52 33 96 -8z m351 -441 c55 -36 130 -122 164 -185 28 -55 34 -102 17
-143 -13 -29 -23 -38 -58 -47 -30 -8 -49 -9 -66 -1 -20 9 -23 17 -23 72 0 74
-31 135 -84 168 -54 34 -71 28 -113 -36 -35 -52 -38 -62 -37 -124 0 -67 0 -68
-29 -79 -78 -27 -102 4 -101 130 1 127 47 203 166 268 55 30 94 24 164 -23z"/>
<path d="M3348 7099 c-69 -47 -128 -134 -203 -294 -62 -136 -86 -175 -147
-242 -26 -29 -60 -72 -75 -95 -15 -24 -71 -99 -124 -168 -107 -139 -144 -205
-184 -330 -69 -221 -98 -413 -76 -507 16 -66 92 -195 131 -223 l30 -22 118 43
c64 23 203 82 307 131 190 90 475 207 550 227 22 5 57 11 78 13 l37 2 0 48 c0
36 10 68 39 126 21 42 51 109 66 147 34 87 92 204 112 227 21 23 10 50 -51
133 -216 289 -352 498 -442 678 -54 106 -79 147 -92 146 -9 0 -43 -18 -74 -40z"/>
<path d="M6392 6640 c-9 -15 -12 -114 -12 -397 0 -371 0 -377 18 -348 49 79
142 137 365 229 20 8 37 21 37 29 0 33 -236 355 -301 411 -23 19 -50 49 -60
66 -22 35 -30 37 -47 10z"/>
<path d="M8040 6499 c-259 -74 -757 -258 -945 -350 -87 -43 -90 -45 -88 -77 1
-22 36 -91 111 -215 60 -100 122 -207 137 -237 15 -30 36 -65 47 -77 l21 -22
48 25 c109 55 412 107 630 108 143 1 169 -6 169 -45 0 -36 -39 -47 -200 -59
-221 -16 -403 -44 -490 -75 -93 -34 -113 -50 -105 -85 15 -59 204 -448 298
-612 29 -51 80 -142 112 -203 32 -60 60 -112 62 -114 2 -3 16 8 32 23 27 26
35 28 98 26 37 -1 75 -2 84 -1 8 1 38 33 65 73 46 68 49 76 49 137 l0 65 -69
41 c-38 22 -75 50 -83 62 -17 25 -29 191 -19 246 4 20 18 50 32 67 53 62 124
26 199 -101 42 -73 54 -78 110 -51 25 12 63 22 84 22 35 0 44 6 95 66 31 36
56 69 56 74 0 4 -7 45 -16 91 -11 56 -14 108 -10 157 7 85 2 98 -60 162 -63
65 -74 100 -72 222 1 90 -2 109 -22 146 -19 37 -23 62 -27 180 -2 75 -9 149
-15 164 -5 14 -28 39 -49 54 -22 15 -63 54 -90 86 -28 32 -56 58 -62 57 -7 0
-59 -14 -117 -30z"/>
<path d="M6785 6028 c-51 -27 -383 -168 -396 -168 -10 0 -13 -801 -3 -861 l6
-36 68 33 c132 64 287 157 405 244 145 105 314 220 326 220 31 0 -29 120 -185
375 -150 244 -141 235 -221 193z"/>
<path d="M4086 5957 c-15 -39 -47 -115 -71 -168 -44 -98 -65 -169 -48 -169 13
0 67 59 91 99 l20 33 16 -28 c8 -16 28 -42 42 -59 l27 -29 16 23 c9 13 31 39
49 59 32 36 32 37 48 17 9 -11 23 -35 31 -54 l14 -33 30 40 c44 60 57 61 82 2
11 -27 24 -50 29 -50 4 0 16 17 27 38 10 20 28 45 39 55 20 18 21 18 34 -5 7
-13 20 -41 29 -63 9 -21 21 -41 27 -43 5 -1 27 24 48 57 22 33 42 60 46 60 4
1 14 -14 22 -31 8 -18 21 -42 30 -53 16 -20 17 -19 63 33 27 29 53 52 60 52
11 0 33 -58 33 -90 0 -8 15 1 38 23 43 42 48 44 75 20 19 -18 19 -16 14 152
-3 94 -6 170 -6 170 -1 0 -198 0 -438 0 -241 0 -450 3 -464 7 -25 7 -27 4 -53
-65z"/>
<path d="M4008 5525 l-58 -54 0 -281 0 -280 63 0 c34 0 79 3 100 7 l38 6 -2
276 -2 276 -31 53 c-17 28 -35 52 -41 52 -5 -1 -36 -25 -67 -55z"/>
<path d="M4330 5535 l-45 -45 3 -268 c2 -147 6 -277 9 -289 5 -21 11 -23 83
-23 l77 0 7 184 c4 101 4 231 0 287 -7 94 -10 108 -38 148 -18 25 -36 46 -42
48 -5 2 -30 -17 -54 -42z"/>
<path d="M4657 5528 l-47 -53 0 -251 c0 -138 3 -266 6 -283 l7 -31 77 0 77 0
7 38 c3 20 6 148 6 283 0 208 -2 249 -15 259 -8 7 -25 30 -37 51 -12 22 -25
39 -28 39 -4 0 -28 -24 -53 -52z"/>
<path d="M3770 5562 c-8 -3 -55 -25 -105 -50 -49 -24 -157 -75 -240 -112 -82
-37 -204 -92 -270 -122 -66 -30 -182 -79 -259 -108 l-138 -54 6 -34 c7 -47 78
-169 266 -457 86 -132 177 -274 203 -315 84 -134 132 -195 154 -198 17 -3 33
12 70 64 84 119 141 182 246 273 104 91 308 248 336 260 9 3 -33 8 -92 11
-105 5 -110 6 -134 34 l-25 29 7 366 c3 201 3 378 -2 392 -5 17 -13 24 -23 21z"/>
<path d="M4967 5532 l-38 -38 -2 -290 -2 -289 71 -3 71 -3 7 292 7 293 -38 38
-39 38 -37 -38z"/>
<path d="M7189 5329 c-31 -17 -101 -64 -155 -106 -55 -41 -139 -102 -189 -135
-112 -74 -353 -196 -405 -204 -36 -6 -40 -10 -46 -43 -16 -96 -21 -99 -213
-105 -84 -3 -156 -7 -159 -10 -12 -13 23 -96 76 -181 55 -88 114 -170 207
-290 114 -146 169 -222 182 -254 l14 -33 72 8 c72 8 92 9 378 17 88 3 166 10
177 16 14 8 27 31 37 69 23 86 36 105 90 132 45 23 54 33 92 110 23 47 56 97
73 113 56 50 135 30 219 -57 24 -25 56 -48 71 -51 38 -8 79 10 91 41 9 24 6
32 -25 63 -56 59 -128 185 -361 635 -82 159 -154 291 -160 292 -5 2 -35 -10
-66 -27z"/>
<path d="M5651 5084 c-50 -35 -65 -129 -35 -221 l16 -49 43 6 c28 3 55 16 80
38 21 17 44 32 52 32 9 0 13 16 12 58 -1 80 -10 104 -48 129 -40 27 -87 30
-120 7z"/>
<path d="M5565 4730 c-22 -5 -266 -6 -542 -3 -391 4 -503 2 -503 -7 0 -15 89
-174 139 -250 26 -39 43 -54 56 -53 11 1 72 20 135 43 63 22 178 58 255 79
423 118 555 161 555 181 0 7 -38 21 -50 19 -3 -1 -23 -5 -45 -9z"/>
<path d="M4111 4689 c-31 -63 -63 -95 -171 -176 -52 -39 -160 -129 -240 -200
-189 -168 -227 -223 -156 -223 49 0 184 26 316 62 63 17 252 65 420 108 267
67 305 79 305 96 0 10 -40 97 -90 191 l-90 173 -70 0 c-38 0 -100 3 -136 6
l-66 7 -22 -44z"/>
<path d="M5731 4614 c-74 -30 -227 -81 -340 -115 -113 -33 -271 -82 -351 -109
-80 -26 -160 -51 -178 -55 -42 -9 -72 -41 -72 -76 0 -16 16 -55 35 -88 19 -32
35 -62 35 -65 0 -3 34 -65 76 -138 42 -73 107 -191 145 -263 38 -72 83 -145
99 -162 l30 -32 59 21 c32 12 66 18 75 15 29 -11 19 -57 -24 -103 -53 -58 -52
-81 11 -184 28 -47 60 -102 71 -125 27 -51 343 -516 420 -616 32 -42 58 -85
58 -96 0 -11 -20 -49 -44 -84 -90 -132 -99 -183 -43 -236 45 -45 81 -56 126
-42 41 14 129 68 152 95 22 25 59 99 59 119 0 11 12 15 53 15 81 0 94 19 75
112 -12 56 -11 62 11 104 46 86 131 134 239 134 58 0 72 3 89 23 52 56 75 145
50 193 -8 16 -38 51 -67 78 -43 41 -55 47 -78 41 -65 -16 -75 -12 -109 39 -28
41 -33 57 -33 108 0 34 -7 72 -16 89 -16 32 -19 33 -109 17 -17 -2 -20 2 -20
32 0 19 4 47 8 62 11 41 -20 68 -78 68 -38 0 -45 3 -45 20 0 10 14 35 31 54
33 38 33 60 -1 91 -35 32 -25 61 49 139 46 49 71 84 76 107 21 106 22 106 74
119 27 6 57 17 67 25 17 12 17 15 -8 52 -14 21 -68 86 -119 144 -95 107 -263
339 -334 462 -22 38 -46 67 -55 66 -8 0 -75 -25 -149 -55z"/>
<path d="M4515 4209 c-44 -11 -123 -33 -175 -49 -110 -33 -445 -123 -540 -144
-36 -8 -110 -22 -165 -30 -107 -16 -135 -33 -135 -82 0 -14 40 -82 95 -162 52
-75 163 -238 247 -362 159 -236 293 -420 306 -420 5 0 30 14 58 32 54 35 684
345 806 398 43 18 82 38 86 44 14 17 -379 711 -438 774 -25 26 -41 27 -145 1z"/>
<path d="M3222 3855 c-146 -56 -263 -119 -522 -280 -183 -113 -491 -262 -514
-248 -32 21 -45 9 -55 -50 -6 -33 -21 -76 -35 -96 -47 -70 -45 -86 23 -171 51
-65 71 -80 111 -80 46 0 72 19 94 69 13 28 36 52 79 81 33 22 64 40 70 40 5 0
34 -14 63 -31 59 -33 69 -32 118 19 l28 31 65 -50 c55 -42 71 -49 109 -49 61
0 89 29 104 108 18 91 66 129 129 102 55 -22 84 -64 92 -131 4 -36 14 -68 25
-81 24 -25 96 -62 152 -77 53 -15 68 -39 75 -123 9 -102 -9 -144 -93 -213 -37
-31 -75 -67 -84 -80 -19 -28 -21 -91 -5 -132 6 -15 15 -57 19 -92 10 -73 38
-111 96 -129 49 -15 75 -3 115 52 18 25 37 46 43 46 6 0 25 -9 41 -20 45 -30
62 -25 115 30 l49 51 50 -26 c28 -14 61 -25 75 -25 39 0 83 44 102 103 24 74
40 90 87 84 45 -6 92 -43 231 -179 l99 -96 68 -4 c38 -2 69 -1 69 2 0 23 -81
151 -180 285 -64 88 -134 186 -154 218 -45 70 -54 71 -169 17 -47 -22 -90 -40
-96 -40 -40 0 29 95 98 135 28 16 51 35 51 42 0 18 -20 49 -105 163 -40 52
-152 214 -250 360 -210 313 -269 393 -330 449 -52 48 -66 49 -153 16z"/>
<path d="M4937 3231 c-98 -49 -184 -94 -190 -99 -7 -5 -68 -35 -137 -67 -163
-74 -356 -184 -371 -211 -10 -19 0 -38 85 -160 296 -430 388 -578 421 -681 16
-48 16 -55 2 -77 -12 -17 -22 -22 -41 -19 -56 11 -118 -30 -129 -86 -15 -76
50 -161 123 -161 44 0 69 20 101 83 11 21 26 40 33 43 8 3 42 -13 76 -35 69
-45 111 -51 160 -26 71 37 81 115 25 186 -40 50 -41 60 -19 95 29 43 60 53
136 41 52 -8 71 -7 83 3 21 17 19 48 -5 88 -29 47 -25 76 12 107 48 40 87 30
158 -40 67 -66 95 -71 136 -22 32 38 60 97 69 150 8 41 36 67 72 67 45 0 39
12 -167 295 -72 99 -195 278 -272 398 -111 171 -145 217 -162 217 -11 0 -101
-40 -199 -89z"/>
</g>
</svg>
